<mxfile host="Electron" modified="2023-10-11T16:18:19.983Z" agent="Mozilla/5.0 (Windows NT 10.0; Win64; x64) AppleWebKit/537.36 (KHTML, like Gecko) draw.io/22.0.2 Chrome/114.0.5735.289 Electron/25.8.4 Safari/537.36" etag="CztHax0q_iDFLvyGnK3O" version="22.0.2" type="device">
  <diagram name="Página-1" id="HFTGjn9ehdENe-Jf3t2O">
    <mxGraphModel dx="733" dy="443" grid="1" gridSize="10" guides="1" tooltips="1" connect="1" arrows="1" fold="1" page="1" pageScale="1" pageWidth="827" pageHeight="1169" math="0" shadow="0">
      <root>
        <mxCell id="0" />
        <mxCell id="1" parent="0" />
        <mxCell id="MjUtiEL_zRk6QpcERyZ5-23" style="edgeStyle=orthogonalEdgeStyle;rounded=0;orthogonalLoop=1;jettySize=auto;html=1;endArrow=none;endFill=0;dashed=1;exitX=0.5;exitY=1;exitDx=0;exitDy=0;" edge="1" parent="1" source="MjUtiEL_zRk6QpcERyZ5-1">
          <mxGeometry relative="1" as="geometry">
            <mxPoint x="140" y="480" as="targetPoint" />
            <mxPoint x="140" y="200" as="sourcePoint" />
          </mxGeometry>
        </mxCell>
        <mxCell id="MjUtiEL_zRk6QpcERyZ5-1" value="Cliente" style="rounded=0;whiteSpace=wrap;html=1;fillColor=#ffe6cc;strokeColor=#d79b00;" vertex="1" parent="1">
          <mxGeometry x="80" y="80" width="120" height="40" as="geometry" />
        </mxCell>
        <mxCell id="MjUtiEL_zRk6QpcERyZ5-3" value="Sistema" style="rounded=0;whiteSpace=wrap;html=1;fillColor=#ffe6cc;strokeColor=#d79b00;" vertex="1" parent="1">
          <mxGeometry x="358" y="80" width="120" height="40" as="geometry" />
        </mxCell>
        <mxCell id="MjUtiEL_zRk6QpcERyZ5-17" style="edgeStyle=orthogonalEdgeStyle;rounded=0;orthogonalLoop=1;jettySize=auto;html=1;dashed=1;endArrow=none;endFill=0;" edge="1" parent="1" source="MjUtiEL_zRk6QpcERyZ5-25">
          <mxGeometry relative="1" as="geometry">
            <mxPoint x="700" y="480" as="targetPoint" />
          </mxGeometry>
        </mxCell>
        <mxCell id="MjUtiEL_zRk6QpcERyZ5-5" value="Banco" style="rounded=0;whiteSpace=wrap;html=1;fillColor=#ffe6cc;strokeColor=#d79b00;" vertex="1" parent="1">
          <mxGeometry x="640" y="80" width="120" height="40" as="geometry" />
        </mxCell>
        <mxCell id="MjUtiEL_zRk6QpcERyZ5-19" value="" style="edgeStyle=orthogonalEdgeStyle;rounded=0;orthogonalLoop=1;jettySize=auto;html=1;dashed=1;endArrow=none;endFill=0;" edge="1" parent="1" source="MjUtiEL_zRk6QpcERyZ5-3" target="MjUtiEL_zRk6QpcERyZ5-18">
          <mxGeometry relative="1" as="geometry">
            <mxPoint x="418" y="681" as="targetPoint" />
            <mxPoint x="418" y="120" as="sourcePoint" />
          </mxGeometry>
        </mxCell>
        <mxCell id="MjUtiEL_zRk6QpcERyZ5-18" value="" style="rounded=0;whiteSpace=wrap;html=1;fillColor=#d5e8d4;strokeColor=#82b366;" vertex="1" parent="1">
          <mxGeometry x="408" y="160" width="20" height="240" as="geometry" />
        </mxCell>
        <mxCell id="MjUtiEL_zRk6QpcERyZ5-26" value="" style="edgeStyle=orthogonalEdgeStyle;rounded=0;orthogonalLoop=1;jettySize=auto;html=1;dashed=1;endArrow=none;endFill=0;" edge="1" parent="1" source="MjUtiEL_zRk6QpcERyZ5-5" target="MjUtiEL_zRk6QpcERyZ5-25">
          <mxGeometry relative="1" as="geometry">
            <mxPoint x="700" y="682" as="targetPoint" />
            <mxPoint x="700" y="120" as="sourcePoint" />
          </mxGeometry>
        </mxCell>
        <mxCell id="MjUtiEL_zRk6QpcERyZ5-25" value="" style="rounded=0;whiteSpace=wrap;html=1;fillColor=#d5e8d4;strokeColor=#82b366;" vertex="1" parent="1">
          <mxGeometry x="690" y="190" width="20" height="100" as="geometry" />
        </mxCell>
        <mxCell id="MjUtiEL_zRk6QpcERyZ5-36" value="" style="endArrow=block;html=1;rounded=0;endFill=1;" edge="1" parent="1">
          <mxGeometry width="50" height="50" relative="1" as="geometry">
            <mxPoint x="150" y="160" as="sourcePoint" />
            <mxPoint x="400" y="160" as="targetPoint" />
          </mxGeometry>
        </mxCell>
        <mxCell id="MjUtiEL_zRk6QpcERyZ5-37" value="" style="endArrow=block;html=1;rounded=0;endFill=1;" edge="1" parent="1">
          <mxGeometry width="50" height="50" relative="1" as="geometry">
            <mxPoint x="440" y="230" as="sourcePoint" />
            <mxPoint x="680" y="230" as="targetPoint" />
          </mxGeometry>
        </mxCell>
        <mxCell id="MjUtiEL_zRk6QpcERyZ5-40" value="1 - Inicia pagamento" style="text;html=1;align=left;verticalAlign=middle;resizable=0;points=[];autosize=1;strokeColor=none;fillColor=none;" vertex="1" parent="1">
          <mxGeometry x="150" y="130" width="130" height="30" as="geometry" />
        </mxCell>
        <mxCell id="MjUtiEL_zRk6QpcERyZ5-41" value="3 - Comunica via API" style="text;html=1;align=right;verticalAlign=middle;resizable=0;points=[];autosize=1;strokeColor=none;fillColor=none;" vertex="1" parent="1">
          <mxGeometry x="540" y="196" width="140" height="30" as="geometry" />
        </mxCell>
        <mxCell id="MjUtiEL_zRk6QpcERyZ5-42" value="4 - Resposta de aprovação" style="text;html=1;align=left;verticalAlign=middle;resizable=0;points=[];autosize=1;strokeColor=none;fillColor=none;" vertex="1" parent="1">
          <mxGeometry x="440" y="250" width="170" height="30" as="geometry" />
        </mxCell>
        <mxCell id="MjUtiEL_zRk6QpcERyZ5-46" value="" style="edgeStyle=orthogonalEdgeStyle;rounded=0;orthogonalLoop=1;jettySize=auto;html=1;dashed=1;endArrow=none;endFill=0;" edge="1" parent="1" source="MjUtiEL_zRk6QpcERyZ5-18">
          <mxGeometry relative="1" as="geometry">
            <mxPoint x="418" y="480" as="targetPoint" />
            <mxPoint x="418" y="250" as="sourcePoint" />
          </mxGeometry>
        </mxCell>
        <mxCell id="MjUtiEL_zRk6QpcERyZ5-48" value="" style="endArrow=open;html=1;rounded=0;endFill=0;dashed=1;" edge="1" parent="1">
          <mxGeometry width="50" height="50" relative="1" as="geometry">
            <mxPoint x="400" y="360" as="sourcePoint" />
            <mxPoint x="150" y="360" as="targetPoint" />
          </mxGeometry>
        </mxCell>
        <mxCell id="MjUtiEL_zRk6QpcERyZ5-49" value="" style="rounded=0;whiteSpace=wrap;html=1;fillColor=#f8cecc;strokeColor=#b85450;" vertex="1" parent="1">
          <mxGeometry x="414" y="180" width="20" height="30" as="geometry" />
        </mxCell>
        <mxCell id="MjUtiEL_zRk6QpcERyZ5-51" style="edgeStyle=orthogonalEdgeStyle;rounded=0;orthogonalLoop=1;jettySize=auto;html=1;exitX=1;exitY=0.019;exitDx=0;exitDy=0;exitPerimeter=0;entryX=1.013;entryY=0.655;entryDx=0;entryDy=0;entryPerimeter=0;" edge="1" parent="1" source="MjUtiEL_zRk6QpcERyZ5-18" target="MjUtiEL_zRk6QpcERyZ5-49">
          <mxGeometry relative="1" as="geometry">
            <mxPoint x="440" y="200" as="targetPoint" />
            <Array as="points">
              <mxPoint x="450" y="165" />
              <mxPoint x="450" y="200" />
            </Array>
          </mxGeometry>
        </mxCell>
        <mxCell id="MjUtiEL_zRk6QpcERyZ5-53" value="2 - Valida dados" style="text;html=1;align=left;verticalAlign=middle;resizable=0;points=[];autosize=1;strokeColor=none;fillColor=none;" vertex="1" parent="1">
          <mxGeometry x="456" y="166" width="110" height="30" as="geometry" />
        </mxCell>
        <mxCell id="MjUtiEL_zRk6QpcERyZ5-54" value="" style="endArrow=open;html=1;rounded=0;endFill=0;dashed=1;" edge="1" parent="1">
          <mxGeometry width="50" height="50" relative="1" as="geometry">
            <mxPoint x="680" y="280" as="sourcePoint" />
            <mxPoint x="440" y="280" as="targetPoint" />
          </mxGeometry>
        </mxCell>
        <mxCell id="MjUtiEL_zRk6QpcERyZ5-56" style="edgeStyle=orthogonalEdgeStyle;rounded=0;orthogonalLoop=1;jettySize=auto;html=1;entryX=1.08;entryY=0.62;entryDx=0;entryDy=0;entryPerimeter=0;exitX=0.983;exitY=0.596;exitDx=0;exitDy=0;exitPerimeter=0;" edge="1" parent="1" source="MjUtiEL_zRk6QpcERyZ5-18" target="MjUtiEL_zRk6QpcERyZ5-55">
          <mxGeometry relative="1" as="geometry">
            <mxPoint x="430" y="303" as="sourcePoint" />
            <mxPoint x="430" y="363" as="targetPoint" />
            <Array as="points">
              <mxPoint x="460" y="303" />
              <mxPoint x="460" y="332" />
            </Array>
          </mxGeometry>
        </mxCell>
        <mxCell id="MjUtiEL_zRk6QpcERyZ5-55" value="" style="rounded=0;whiteSpace=wrap;html=1;fillColor=#f8cecc;strokeColor=#b85450;" vertex="1" parent="1">
          <mxGeometry x="420" y="313" width="20" height="30" as="geometry" />
        </mxCell>
        <mxCell id="MjUtiEL_zRk6QpcERyZ5-57" value="5 - Pagamento aprovado ?" style="text;html=1;align=left;verticalAlign=middle;resizable=0;points=[];autosize=1;strokeColor=none;fillColor=none;" vertex="1" parent="1">
          <mxGeometry x="466" y="302" width="170" height="30" as="geometry" />
        </mxCell>
        <mxCell id="MjUtiEL_zRk6QpcERyZ5-58" value="6 - Resposta ao cliente" style="text;html=1;align=left;verticalAlign=middle;resizable=0;points=[];autosize=1;strokeColor=none;fillColor=none;" vertex="1" parent="1">
          <mxGeometry x="150" y="328" width="150" height="30" as="geometry" />
        </mxCell>
      </root>
    </mxGraphModel>
  </diagram>
</mxfile>
